<?xml version="1.0" encoding="UTF-8"?>
<svg id="Capa_2" data-name="Capa 2" xmlns="http://www.w3.org/2000/svg" viewBox="0 0 24.3 24.3">
  <defs>
    <style>
      .cls-1 {
        fill: #fff;
      }

      .cls-2 {
        fill: #415ca1;
      }
    </style>
  </defs>
  <g id="Capa_1-2" data-name="Capa 1">
    <g>
      <path class="cls-1" d="m24.3,12.15C24.3,5.44,18.86,0,12.15,0S0,5.44,0,12.15c0,6.07,4.44,11.09,10.25,12v-8.49h-3.09v-3.51h3.09v-2.68c0-3.05,1.81-4.73,4.59-4.73,1.33,0,2.72.24,2.72.24v2.99h-1.53c-1.51,0-1.98.94-1.98,1.9v2.28h3.37l-.54,3.51h-2.83v8.49c5.81-.91,10.25-5.94,10.25-12Z"/>
      <path class="cls-2" d="m16.88,15.66l.54-3.51h-3.37v-2.28c0-.96.47-1.9,1.98-1.9h1.53v-2.99s-1.39-.24-2.72-.24c-2.78,0-4.59,1.68-4.59,4.73v2.68h-3.09v3.51h3.09v8.49c.62.1,1.25.15,1.9.15s1.28-.05,1.9-.15v-8.49h2.83Z"/>
    </g>
  </g>
</svg>