<?xml version="1.0" encoding="UTF-8"?>
<svg id="Capa_2" data-name="Capa 2" xmlns="http://www.w3.org/2000/svg" viewBox="0 0 30.01 30.01">
  <defs>
    <style>
      .cls-1 {
        fill: #fff;
      }
    </style>
  </defs>
  <g id="Capa_1-2" data-name="Capa 1">
    <path class="cls-1" d="m30.01,15.01c0,4.51-1.99,8.57-5.15,11.32-2.63,2.29-6.08,3.69-9.85,3.69-5.73,0-10.71-3.22-13.24-7.94-1.13-2.11-1.77-4.51-1.77-7.06s.63-4.92,1.73-7.01C4.25,3.24,9.25,0,15.01,0c3.98,0,7.6,1.55,10.29,4.08l-4.19,4.38c-1.6-1.49-3.74-2.41-6.1-2.41-3.84,0-7.12,2.42-8.39,5.82-.36.97-.56,2.03-.56,3.13s.21,2.19.58,3.18c1.28,3.37,4.55,5.76,8.37,5.76,1.92,0,3.7-.6,5.16-1.64,1.57-1.11,2.76-2.71,3.36-4.57l-8.07.25v-5.53h14.34c.14.83.21,1.68.21,2.54Z"/>
  </g>
</svg>