<?xml version="1.0" encoding="UTF-8"?>
<svg id="Capa_2" data-name="Capa 2" xmlns="http://www.w3.org/2000/svg" viewBox="0 0 24.3 24.3">
  <defs>
    <style>
      .cls-1 {
        fill: #fff;
      }
    </style>
  </defs>
  <g id="Capa_1-2" data-name="Capa 1">
    <g>
      <path class="cls-1" d="m18.59,4.34c-.79,0-1.42.64-1.42,1.42s.64,1.42,1.42,1.42,1.42-.64,1.42-1.42-.64-1.42-1.42-1.42Z"/>
      <path class="cls-1" d="m12.25,6.17c-3.3,0-5.99,2.68-5.99,5.98s2.68,5.99,5.99,5.99,5.98-2.68,5.98-5.99-2.68-5.98-5.98-5.98Zm0,9.82c-2.11,0-3.83-1.72-3.83-3.83s1.72-3.83,3.83-3.83,3.83,1.72,3.83,3.83-1.72,3.83-3.83,3.83Z"/>
      <path class="cls-1" d="m17,24.3H7.3c-4.03,0-7.3-3.27-7.3-7.3V7.3C0,3.27,3.27,0,7.3,0h9.7c4.03,0,7.3,3.27,7.3,7.3v9.7c0,4.03-3.28,7.3-7.3,7.3ZM7.3,2.29c-2.76,0-5.01,2.25-5.01,5.01v9.7c0,2.76,2.25,5.01,5.01,5.01h9.7c2.76,0,5.01-2.25,5.01-5.01V7.3c0-2.76-2.25-5.01-5.01-5.01H7.3Z"/>
    </g>
  </g>
</svg>