<?xml version="1.0" encoding="UTF-8"?>
<svg id="Capa_2" data-name="Capa 2" xmlns="http://www.w3.org/2000/svg" viewBox="0 0 690.1 252.55">
  <defs>
    <style>
      .cls-1 {
        fill: #fff;
      }
    </style>
  </defs>
  <g id="Capa_1-2" data-name="Capa 1">
    <g>
      <path class="cls-1" d="m168.63,60.27c-4.65-.76-5.79-1.71-5.88-4.08-1.61-37.3-2.28-48.69-2.28-48.97,0-1.8,1.14-2.75,5.69-3.42.66-.1.95-.76.95-1.61,0-.38-.1-1.04-.19-1.52-3.32.28-8.16.48-10.25.48-4.46,0-4.94.66-5.41,1.8l-19.27,47.36L111.69,2.94c-.47-1.14-.95-1.8-5.41-1.8-2.37,0-7.88-.19-11.2-.48-.1.48-.19,1.14-.19,1.52,0,.85.28,1.52.95,1.61,4.46.76,5.69,1.52,5.69,3.51,0,.19-1.99,45.46-2.18,48.88-.19,2.37-2.47,3.51-5.88,4.08-.57.09-.95.47-.95,1.52,0,.38.09,1.04.19,1.52,3.04-.28,6.93-.48,8.92-.48,2.47,0,5.98.19,9.4.48.09-.48.19-1.14.19-1.52,0-.95-.28-1.42-.95-1.52-4.27-.76-6.45-1.99-6.45-4.08,0-.76,1.99-42.04,2.18-45.65l23.25,53.34c.19.1.57.1.85.1.76,0,1.14-.57,1.61-1.71l20.78-50.21c.19,3.04,1.99,42.8,2.09,44.13,0,2.37-1.52,3.13-6.55,4.08-.47,0-.95.47-.95,1.52,0,.38.09,1.04.19,1.52,3.13-.28,8.54-.48,11.1-.48,3.04,0,6.64.19,11.01.48.1-.48.19-1.14.19-1.52,0-.76-.28-1.42-.95-1.52Z"/>
      <path class="cls-1" d="m175.47,3.89c4.56.57,5.88,1.33,6.64,3.13l22.3,55.33c.47,1.23.95,1.61,1.71,1.61.28,0,.66-.1.85-.1l23.44-56.37c.95-2.37,2.66-3.23,6.64-3.51.66-.09,1.04-.76,1.04-1.71,0-.38-.19-1.61-.19-1.61-.57.1-4.65.48-8.83.48s-9.59-.38-10.16-.48c0,0-.19,1.14-.19,1.52,0,.95.38,1.52,1.14,1.61,3.89.47,5.6,1.23,5.6,3.04,0,.57-.1,1.14-.38,1.9l-16.61,40.62-16.13-41.28c-.1-.28-.19-.85-.19-1.23,0-1.61,1.9-2.66,5.6-3.04.66-.1,1.14-.66,1.14-1.61,0-.38-.09-1.04-.19-1.52-3.89.28-9.02.48-12.15.48s-8.16-.19-11.96-.48c-.09.38-.19,1.14-.19,1.52,0,.95.19,1.61,1.04,1.71Z"/>
      <path class="cls-1" d="m261.26,63.97c15,0,20.97-8.16,20.97-18.51,0-8.54-5.69-14.05-17.75-18.89-9.68-3.89-14.81-7.12-14.81-13.1s5.13-9.11,11.2-9.11c7.78,0,11.96,3.23,15.19,10.35.38.76,1.04,1.52,2.66,1.52.47,0,.95-.1,1.42-.19-.76-3.8-1.23-8.45-1.42-12.24-6.83-2.66-11.86-3.7-17.75-3.7-11.39,0-18.51,7.5-18.51,16.89,0,10.63,7.12,15,18.03,18.98,8.35,3.04,13,6.36,13,12.91,0,5.69-3.99,10.72-12.15,10.72-9.02,0-13.38-4.18-16.61-13.29-.57-1.52-1.33-2.18-2.85-2.18-.57,0-1.14.1-1.61.28,1.04,4.94,1.8,9.78,2.18,15.09,4.37,2.66,11.01,4.46,18.79,4.46Z"/>
      <path class="cls-1" d="m292.96,60.27c-.57.09-.95.57-.95,1.52,0,.38.1,1.04.19,1.52,3.8-.28,8.16-.48,11.86-.48h20.78c3.32,0,9.68.48,11.58.48,2.56,0,3.04-9.78,5.41-14.62-.57-.38-1.33-.85-1.99-.85s-1.23.19-1.42.66c-3.04,5.98-6.17,10.44-13.57,10.44h-5.22c-7.78,0-11.01-.66-11.01-3.32v-22.4h14.81c2.47,0,3.42,2.85,3.99,6.36.19.95.76,1.23,1.8,1.23.38,0,1.04-.1,1.42-.19-.38-3.89-.47-7.02-.47-9.21,0-2.66.19-6.64.47-9.4-.38-.1-1.14-.28-1.52-.28-.85,0-1.52.38-1.71,1.23-.57,3.51-1.42,6.36-3.99,6.36h-14.81V5.03h14.05c7.69,0,9.78,2.85,12.72,9.4.28.66.95.85,1.61.85.76,0,1.23-.19,1.71-.57-2.75-4.65-1.23-14.14-4.46-14.14-1.42,0-5.88.57-11.58.57h-18.7c-2.94,0-6.36-.1-11.77-.48-.09.48-.19.95-.19,1.52,0,.95.19,1.42.95,1.61,5.32.95,6.74,1.61,6.74,4.08v48.31c0,2.47-1.99,3.23-6.74,4.08Z"/>
      <path class="cls-1" d="m377.91,63.97c17.75,0,31.89-12.05,31.89-31.98,0-16.89-10.53-31.98-32.65-31.98-16.04,0-29.71,14.62-29.71,31.98,0,19.27,12.53,31.98,30.46,31.98Zm-1.04-59.41c15.75,0,23.35,13.95,23.35,32.08,0,13.1-8.16,22.78-20.12,22.78-14.71,0-22.87-14.05-22.87-32.84,0-14.14,9.21-22.02,19.65-22.02Z"/>
      <path class="cls-1" d="m459.36,66.51c4.48,0,8.82-3.65,13.09-12.27h.28l-2.07,8.89c-.14.69-.21,1.1-.21,1.59,0,1.52.96,1.79,2,1.79,1.86,0,6.06-2.14,9.23-4.48-.14-.96-.48-1.38-.9-1.38-.76,0-2.48,1.59-3.72,1.59-.55,0-.83-.28-.83-.83,0-.28.14-.76.21-1.17l7.86-40.38c.07-.35.14-.83.14-1.24,0-.35-.14-.76-.83-1.17-3.51,1.38-6.89,2.48-10.96,3.58,0,.9.41,1.45.9,1.45s3.1-.55,3.65-.55c.62,0,.69.55.69,1.03,0,1.38-.41,4.89-.83,7.03l-1.1,5.44c-1.17-.14-2.55-.21-4-.21-7.99,0-18.33,8.34-18.33,23.98,0,5.93,3.03,7.3,5.72,7.3Zm11.71-28.53c1.31,0,3.03.28,4.13.62-.07,7.24-7.79,23.5-12.95,23.5-1.79,0-2.76-1.38-2.76-5.24,0-10.47,4.48-18.88,11.58-18.88Z"/>
      <path class="cls-1" d="m495.74,66.51c4.96,0,9.23-2.83,11.99-5.38,0-.35-.21-1.38-.9-1.38-.28,0-.55.21-.96.48-2.62,1.86-5.31,2.69-7.65,2.69-5.03,0-6.2-4.2-6.2-8.41,0-.97.07-1.93.14-2.83,10.27-.35,17.78-3.24,17.78-9.99,0-4.62-3.72-6.48-7.65-6.48-9.72,0-15.99,10.13-15.99,19.91,0,4.96,1.72,11.37,9.44,11.37Zm5.24-28.87c2.07,0,3.45,1.38,3.45,3.93,0,4.27-3.38,7.37-12.06,8.06.9-6.34,4.27-11.99,8.61-11.99Z"/>
      <path class="cls-1" d="m530.47,66.51c1.86,0,6.06-2.14,9.23-4.48-.21-.96-.48-1.38-.96-1.38-.69,0-2.41,1.59-3.65,1.59-.55,0-.83-.35-.83-.83,0-.21.14-.96.21-1.38l7.86-40.17c.07-.28.14-.83.14-1.1,0-.48-.14-.9-.83-1.31-3.51,1.38-6.89,2.48-10.96,3.58,0,.9.34,1.45.9,1.45.48,0,3.03-.55,3.58-.55.62,0,.69.55.69,1.03,0,1.45-.28,4.41-.83,7.03l-6.48,33.28c-.07.28-.21,1.17-.21,1.45,0,1.52,1.17,1.79,2.14,1.79Z"/>
      <path class="cls-1" d="m549.08,66.51c4.07,0,9.16-3.24,13.71-12.27h.28l-2,8.89c-.14.62-.28,1.24-.28,1.72,0,1.38,1.03,1.65,2,1.65,1.86,0,6.06-2.14,9.3-4.48-.21-.96-.48-1.38-.96-1.38-.69,0-2.48,1.59-3.72,1.59-.55,0-.76-.35-.76-.9,0-.28.07-.9.14-1.24l4.75-23.91c-3.38-.69-5.93-.96-8.82-.96-7.51,0-18.81,8.96-18.81,24.53,0,5.37,2.48,6.75,5.17,6.75Zm12.75-28.53c1.17,0,2.62.28,3.72.62.14,7.37-7.79,23.5-13.44,23.5-1.45,0-2.34-1.31-2.34-4.62,0-11.3,4.75-19.5,12.06-19.5Z"/>
      <path class="cls-1" d="m595.52,57c0-3.72-4.27-6.89-7.65-9.85-2.21-1.93-4.07-3.79-4.07-5.65,0-2.62,2.48-4.14,5.38-4.14s4.48,1.59,4.96,4.34c.07.55.28,1.03,1.24,1.1l1.03.07c.14-2.07.55-4.41.96-5.79-2.34-1.24-4.82-1.86-7.51-1.86-5.93,0-10.82,3.65-10.82,8.61,0,3.31,2.69,5.72,5.44,7.99,2.89,2.34,5.86,4.48,5.86,7.3,0,3.03-2.55,5.1-6.13,5.1s-5.58-2.21-5.44-6.06c0-.83-.55-1.17-1.65-1.17h-.69c-.21,2.89-.55,5.03-1.31,7.79,2.69,1.17,5.79,1.72,8.96,1.72,6.34,0,11.44-4.27,11.44-9.51Z"/>
      <path class="cls-1" d="m66.82,161.18c-3.91,9.77-7.82,15.39-21.99,15.39-17.47,0-32-15.88-32-38.48,0-20.15,10.99-33.59,31.15-33.59,12.09,0,17.83,4.15,20.77,14.9.37,1.46,1.59,1.59,2.81,1.59.61,0,1.47-.24,1.95-.49-1.59-6.47-2.69-13.31-2.81-17.71-8.43-2.32-15.15-3.42-25.9-3.42C13.31,99.37,0,121.24,0,140.54c0,23.09,13.31,41.16,40.8,41.16,9.89,0,17.96-.73,25.9-2.08,1.34-6.72,3.42-14.05,5.37-19.67-.49-.37-1.59-.61-2.32-.61-1.34,0-2.32.49-2.93,1.83Z"/>
      <path class="cls-1" d="m160.13,140.54c0-21.74-13.56-41.16-42.02-41.16-20.64,0-38.23,18.81-38.23,41.16,0,24.8,16.12,41.16,39.21,41.16s41.04-15.51,41.04-41.16Zm-67.67-6.96c0-18.2,11.85-28.34,25.28-28.34,20.28,0,30.05,17.96,30.05,41.29,0,16.86-10.51,29.32-25.9,29.32-18.93,0-29.44-18.08-29.44-42.26Z"/>
      <path class="cls-1" d="m248.81,102.18c0-.49-.12-1.34-.24-1.95-3.66.37-7.82.61-11.36.61s-8.18-.24-12.22-.61c-.12.61-.24,1.47-.24,1.95,0,1.1.24,1.95,1.34,2.08,6.11.86,8.55,1.95,8.55,5.5v51.06l-43.85-58.51c-.98-1.22-1.83-1.47-6.6-1.47-4.52,0-12.7-.61-12.7-.61,0,0-.24,1.47-.24,1.95,0,1.22.49,1.95,1.34,2.08,5.86.86,7.21,2.08,7.21,4.64v62.79c0,3.18-1.59,4.15-7.45,5.25-.73.12-1.34.73-1.34,1.95,0,.49.12,1.34.24,1.95,3.54-.37,8.43-.61,11.73-.61,3.54,0,7.94.24,11.97.61.12-.61.24-1.46.24-1.95,0-1.34-.49-1.83-1.22-1.95-6.47-1.1-8.31-2.08-8.31-5.25v-57.53l49.59,65.35c1.34,1.71,2.2,2.2,3.3,2.2.49,0,1.47-.12,1.83-.24v-71.95c0-3.18,1.71-4.52,7.21-5.25.85-.12,1.22-.73,1.22-2.08Z"/>
      <path class="cls-1" d="m302.18,104.51c12.09,0,17.83,4.15,20.77,14.9.37,1.46,1.59,1.59,2.81,1.59.61,0,1.47-.24,1.95-.49-1.59-6.47-2.69-13.31-2.81-17.71-8.43-2.32-15.15-3.42-25.9-3.42-27.48,0-40.8,21.86-40.8,41.16,0,23.09,13.31,41.16,40.8,41.16,9.89,0,17.96-.73,25.9-2.08,1.34-6.72,3.42-14.05,5.37-19.67-.49-.37-1.59-.61-2.32-.61-1.34,0-2.32.49-2.93,1.83-3.91,9.77-7.82,15.39-21.99,15.39-17.47,0-32-15.88-32-38.48,0-20.15,10.99-33.59,31.15-33.59Z"/>
      <path class="cls-1" d="m401.61,160.94c-.85,0-1.59.24-1.83.86-3.91,7.7-7.94,13.44-17.47,13.44h-6.72c-10.02,0-14.17-.86-14.17-4.28v-28.83h19.06c3.18,0,4.4,3.66,5.13,8.18.24,1.22.98,1.59,2.32,1.59.49,0,1.34-.12,1.83-.24-.49-5.01-.61-9.04-.61-11.85,0-3.42.24-8.55.61-12.09-.49-.12-1.47-.37-1.95-.37-1.1,0-1.95.49-2.2,1.59-.73,4.52-1.83,8.18-5.13,8.18h-19.06v-31.27h18.08c9.89,0,12.58,3.66,16.37,12.09.37.85,1.22,1.1,2.08,1.1.98,0,1.59-.24,2.2-.73-3.54-5.98-1.59-18.2-5.74-18.2-1.83,0-7.57.73-14.9.73h-24.06c-3.79,0-8.18-.12-15.15-.61-.12.61-.24,1.22-.24,1.95,0,1.22.24,1.83,1.22,2.08,6.84,1.22,8.67,2.08,8.67,5.25v62.17c0,3.18-2.57,4.15-8.67,5.25-.73.12-1.22.73-1.22,1.95,0,.49.12,1.34.24,1.95,4.89-.37,10.5-.61,15.27-.61h26.75c4.27,0,12.46.61,14.9.61,3.3,0,3.91-12.58,6.96-18.81-.73-.49-1.71-1.1-2.57-1.1Z"/>
      <path class="cls-1" d="m415.16,104.26c6.47.86,8.67,1.95,8.67,5.25v62.17c0,3.18-1.71,4.03-8.18,5.25-.73.12-1.22.73-1.22,1.95,0,.49.12,1.34.24,1.95,4.76-.37,10.51-.61,14.78-.61,6.96,0,13.19.24,17.83.61.12-.61.24-1.59.24-2.08,0-1.1-.49-1.95-1.47-2.08-7.08-.98-10.75-2.08-10.75-5.86v-25.04h10.63c16.73,0,26.38-12.21,26.38-22.6,0-13.19-8.92-22.35-26.38-22.35h-17.22c-4.52,0-10.02-.24-14.54-.61-.12.49-.24,1.34-.24,1.83,0,1.34.49,2.08,1.22,2.2Zm20.16,1.59h6.47c13.56,0,17.83,8.31,17.83,18.32,0,11.97-6.47,16.61-17.83,16.61h-6.47v-34.93Z"/>
      <path class="cls-1" d="m552.58,119.04c.98,0,1.71-.37,2.44-.73-3.42-11.24-2.44-18.2-5.74-18.2-2.56,0-8.79.73-12.83.73h-40.8c-4.15,0-10.38-.73-12.83-.73-3.18,0-2.32,6.47-5.74,18.2.49.37,1.47.73,2.32.73.61,0,1.47-.24,1.83-1.1,3.79-8.31,6.6-12.09,16.49-12.09h12.58v65.23c0,3.66-3.18,4.76-10.38,5.74-.73.12-1.22.85-1.22,1.95,0,.49.12,1.47.24,2.08,5.13-.37,11.36-.61,17.1-.61s11.85.24,16.98.61c.12-.61.24-1.59.24-2.08,0-1.22-.61-1.95-1.34-1.95-7.33-.86-10.14-2.08-10.14-5.74v-65.23h12.58c9.77,0,12.58,3.79,16.25,12.09.37.85,1.34,1.1,1.95,1.1Z"/>
      <path class="cls-1" d="m569.92,176.94c-5.13-.73-7.45-1.95-7.45-3.66,0-.49.24-1.59.61-2.44l7.82-19.67h27.24l7.7,20.16c.37.86.49,1.47.49,1.83,0,2.08-2.93,3.05-7.09,3.79-.49,0-1.22.49-1.22,1.95,0,.49.12,1.34.24,1.95,4.64-.37,11.24-.61,15.76-.61s9.65.24,14.78.61c.12-.61.24-1.46.24-1.95,0-1.47-.61-1.95-1.59-2.2-3.3-.49-7.33-1.71-8.31-4.03l-29.56-73.05c-.49-.12-.98-.24-1.47-.24-.86,0-1.71.61-2.32,2.08l-29.44,70.85c-1.1,2.57-3.42,3.54-8.43,4.4-1.22.12-1.59,1.1-1.59,2.2,0,.49.12,1.46.24,1.95,3.79-.49,7.08-.61,10.38-.61,4.64,0,9.77.24,14.17.61.12-.61.24-1.46.24-1.95,0-.98-.37-1.83-1.47-1.95Zm14.9-60.71l11.36,29.93h-23.21l11.85-29.93Z"/>
      <path class="cls-1" d="m659.45,181.7c19.3,0,27-10.5,27-23.82,0-10.99-7.33-18.08-22.84-24.31-12.46-5.01-19.06-9.16-19.06-16.86s6.6-11.73,14.41-11.73c10.02,0,15.39,4.15,19.54,13.31.49.98,1.34,1.95,3.42,1.95.61,0,1.22-.12,1.83-.24-.98-4.89-1.59-10.87-1.83-15.76-8.79-3.42-15.27-4.76-22.84-4.76-14.66,0-23.82,9.65-23.82,21.74,0,13.68,9.16,19.3,23.21,24.43,10.75,3.91,16.73,8.18,16.73,16.61,0,7.33-5.13,13.8-15.64,13.8-11.6,0-17.22-5.37-21.38-17.1-.73-1.95-1.71-2.81-3.66-2.81-.73,0-1.47.12-2.08.37,1.34,6.35,2.32,12.58,2.81,19.42,5.62,3.42,14.17,5.74,24.19,5.74Z"/>
      <path class="cls-1" d="m141.87,198.12c-2.1.24-3.78.3-5.22.3-1.56,0-2.88-.12-5.28-.36-.06.36-.12.72-.12.96,0,.54.24.9.72.96,2.04.3,3.3,1.08,3,2.64l-3.9,20.46c-1.68,8.88-7.08,12-12.78,12-6.84,0-9.06-6.12-7.92-12.12l3.96-20.46c.3-1.5,1.8-2.22,3.9-2.52.6-.06.9-.48.9-.96,0-.24-.06-.6-.12-.96-2.16.24-5.22.36-6.9.36-1.98,0-4.2-.12-6.6-.36-.12.42-.18.72-.18,1.08,0,.54.36.9.9.96,1.74.18,3.24.78,2.94,2.46l-4.14,21.42c-1.56,7.92,2.94,14.16,12.06,14.16s14.88-6.12,16.38-14.1l4.14-21.54c.3-1.44,1.68-2.22,3.66-2.52.48-.06.78-.48.78-.9,0-.24-.12-.6-.18-.96Z"/>
      <path class="cls-1" d="m167.56,233.04c-.6,0-2.16,1.38-3.18,1.38-.54,0-.72-.3-.72-.78,0-.18.06-.6.18-1.14l3.06-14.4c.24-1.26.42-2.64.42-3.6,0-2.52-1.44-3.6-3.66-3.6-4.74,0-9.42,5.28-13.62,12.36h-.24l2.16-10.44c.06-.36.12-.78.12-1.02,0-.66-.48-.9-1.02-.9-.72,0-6.18,2.46-9.12,4.26.12.6.42,1.2.84,1.2.66,0,2.76-1.26,3.42-1.26.36,0,.48.3.48.72,0,.36-.24,1.98-3.9,20.52-.06.3-.18.96-.18,1.14,0,.24.18.54.48.72,1.62-.42,3.18-.72,4.74-.9-.12-.54-.18-1.08-.18-1.62,0-2.82,1.26-7.02,2.76-9.66,2.88-5.4,7.98-11.16,10.32-11.16,1.02,0,1.68.48,1.68,1.74,0,.72-.12,1.62-.36,2.7l-3.36,16.02c-.06.36-.18,1.02-.18,1.26,0,1.32.96,1.56,1.8,1.56,1.68,0,5.28-1.86,8.1-3.9-.18-.84-.42-1.2-.84-1.2Z"/>
      <path class="cls-1" d="m195.94,233.04c-.6,0-2.16,1.38-3.24,1.38-.48,0-.66-.3-.66-.78,0-.24.06-.78.12-1.08l4.14-20.82c-2.94-.6-5.16-.84-7.68-.84-6.54,0-16.38,7.8-16.38,21.36,0,4.68,2.16,5.88,4.5,5.88,3.54,0,7.98-2.82,11.94-10.68h.24l-1.74,7.74c-.12.54-.24,1.08-.24,1.5,0,1.2.9,1.44,1.74,1.44,1.62,0,5.28-1.86,8.1-3.9-.18-.84-.42-1.2-.84-1.2Zm-16.56,1.26c-1.26,0-2.04-1.14-2.04-4.02,0-9.84,4.14-16.98,10.5-16.98,1.02,0,2.28.24,3.24.54.12,6.42-6.78,20.46-11.7,20.46Z"/>
      <path class="cls-1" d="m238.91,233.04c-.6,0-2.16,1.38-3.18,1.38-.48,0-.72-.3-.72-.78,0-.24.12-.84.18-1.14l3.06-14.4c.24-1.26.42-2.64.42-3.6,0-2.52-1.5-3.6-3.84-3.6-4.68,0-9.18,5.28-13.44,12.36h-.18l5.1-25.74c.06-.24.18-.66.18-.96,0-.42-.18-.78-.72-1.14-3.06,1.2-6.06,2.16-9.6,3.12,0,.78.3,1.26.84,1.26.42,0,2.58-.48,3.06-.48.54,0,.6.48.6.9,0,1.26-.24,3.84-.72,6.12l-5.82,30.01c-.06.3-.18.84-.18,1.14,0,.24.24.54.54.72,1.62-.42,3.18-.72,4.74-.9-.12-.54-.18-1.08-.18-1.62,0-2.76,1.2-7.02,2.7-9.66,3.36-6,8.04-11.16,10.32-11.16,1.02,0,1.68.48,1.68,1.74,0,.72-.12,1.56-.36,2.7l-3.36,16.02c-.06.24-.18,1.02-.18,1.26,0,1.32,1.02,1.56,1.86,1.56,1.62,0,5.22-1.86,8.04-3.9-.18-.84-.42-1.2-.84-1.2Z"/>
      <path class="cls-1" d="m253.79,233.04c-.6,0-2.1,1.38-3.18,1.38-.48,0-.72-.3-.72-.72,0-.24.12-.9.18-1.2l3.96-19.68c.06-.24.12-.72.12-.9,0-.78-.42-1.02-1.02-1.02-.9,0-6.18,2.58-9.12,4.26.12.6.36,1.2.84,1.2.6,0,2.76-1.26,3.42-1.26.36,0,.54.24.54.72,0,.36-.36,2.34-3.9,19.5-.06.24-.18,1.02-.18,1.26,0,1.32,1.02,1.56,1.86,1.56,1.62,0,5.28-1.86,8.04-3.9-.18-.84-.42-1.2-.84-1.2Z"/>
      <path class="cls-1" d="m254.45,197.76c-2.04,0-3.78,2.04-3.78,4.2,0,1.5.96,2.52,2.46,2.52,1.98,0,3.54-1.98,3.54-3.96,0-1.56-.66-2.76-2.22-2.76Z"/>
      <path class="cls-1" d="m260.81,218.4c0,2.88,2.34,4.98,4.74,6.96,2.52,2.04,5.1,3.9,5.1,6.36,0,2.64-2.22,4.44-5.34,4.44s-4.86-1.92-4.74-5.28c0-.72-.48-1.02-1.44-1.02h-.6c-.18,2.52-.48,4.38-1.14,6.78,2.34,1.02,5.04,1.5,7.8,1.5,5.52,0,9.96-3.72,9.96-8.28,0-3.24-3.72-6-6.66-8.58-1.92-1.68-3.54-3.3-3.54-4.92,0-2.28,2.16-3.6,4.68-3.6s3.9,1.38,4.32,3.78c.06.48.24.9,1.08.96l.9.06c.12-1.8.48-3.84.84-5.04-2.04-1.08-4.2-1.62-6.54-1.62-5.16,0-9.42,3.18-9.42,7.5Z"/>
      <path class="cls-1" d="m290.81,206.22c.06-.3.12-.96.12-1.08,0-.3-.18-.48-.48-.72-1.68.48-3.42.66-4.92.9.12.54.18,1.08.18,1.62,0,.84-.18,2.22-.48,3.66l-.18,1.02h-3.42c-.84,0-1.14.72-1.32,2.04h4.38l-3.78,20.46c-.06.3-.12.9-.12,1.26,0,1.86,1.08,2.76,3.96,2.76,2.58,0,5.7-1.2,8.16-3.12-.06-.66-.36-1.14-.78-1.14-.3,0-.84.36-1.56.66-.78.36-1.8.72-3,.72s-1.74-.42-1.74-1.44c0-.24.06-.66.18-1.26l3.3-18.72c1.86.06,4.02.24,6,.54.12-.84.42-2.04.66-2.76h-6.18l1.02-5.4Z"/>
      <path class="cls-1" d="m310.79,210.9c-5.7,0-13.86,6.84-13.86,17.46,0,6.12,1.98,9.78,7.62,9.78,6.72,0,14.82-5.58,14.82-17.16,0-5.82-2.58-10.08-8.58-10.08Zm-4.74,24.9c-2.94,0-4.08-2.76-4.08-8.04,0-6.72,2.94-14.52,8.28-14.52,3,0,4.08,3.18,4.08,8.22,0,8.28-3.42,14.34-8.28,14.34Z"/>
      <path class="cls-1" d="m331.25,221.82h-.24l1.92-9c.06-.36.12-.84.12-1.02,0-.66-.48-.9-1.02-.9-.78,0-6.18,2.46-9.12,4.26.12.6.42,1.2.84,1.2.66,0,2.64-1.2,3.3-1.2.42,0,.54.3.54.78-.06.48-.18,1.26-.72,4.38l-2.64,13.62c-.18,1.02-.36,1.5-.48,1.92-.12.36-.36,1.14-.36,1.62,0,.24.24.54.54.72,1.62-.42,3.3-.72,4.86-.9-.12-.54-.18-1.08-.18-1.62,0-8.28,7.14-19.08,11.1-19.08.78,0,1.38.42,1.74,1.08h.96c.3-2.46.9-4.44,1.62-6.24-.24-.24-.9-.54-1.62-.54-3.42,0-6.84,3.3-11.16,10.92Z"/>
      <path class="cls-1" d="m355.02,197.76c-2.04,0-3.78,2.04-3.78,4.2,0,1.5.96,2.52,2.46,2.52,1.98,0,3.54-1.98,3.54-3.96,0-1.56-.66-2.76-2.22-2.76Z"/>
      <path class="cls-1" d="m354.36,233.04c-.6,0-2.1,1.38-3.18,1.38-.48,0-.72-.3-.72-.72,0-.24.12-.9.18-1.2l3.96-19.68c.06-.24.12-.72.12-.9,0-.78-.42-1.02-1.02-1.02-.9,0-6.18,2.58-9.12,4.26.12.6.36,1.2.84,1.2.6,0,2.76-1.26,3.42-1.26.36,0,.54.24.54.72,0,.36-.36,2.34-3.9,19.5-.06.24-.18,1.02-.18,1.26,0,1.32,1.02,1.56,1.86,1.56,1.62,0,5.28-1.86,8.04-3.9-.18-.84-.42-1.2-.84-1.2Z"/>
      <path class="cls-1" d="m382.62,233.04c-.6,0-2.16,1.38-3.24,1.38-.48,0-.66-.3-.66-.78,0-.24.06-.78.12-1.08l4.14-20.82c-2.94-.6-5.16-.84-7.68-.84-6.54,0-16.38,7.8-16.38,21.36,0,4.68,2.16,5.88,4.5,5.88,3.54,0,7.98-2.82,11.94-10.68h.24l-1.74,7.74c-.12.54-.24,1.08-.24,1.5,0,1.2.9,1.44,1.74,1.44,1.62,0,5.28-1.86,8.1-3.9-.18-.84-.42-1.2-.84-1.2Zm-16.56,1.26c-1.26,0-2.04-1.14-2.04-4.02,0-9.84,4.14-16.98,10.5-16.98,1.02,0,2.28.24,3.24.54.12,6.42-6.78,20.46-11.7,20.46Z"/>
      <path class="cls-1" d="m399.66,231.9c0,5.04,2.4,6.24,4.86,6.24,4.08,0,8.22-3.84,11.46-10.44h.18c-1.2,6.12-3.48,16.74-4.5,22.26-.18.84-.24,1.56-.24,1.86,0,.24.18.48.48.72,1.62-.42,3.42-.78,4.92-.96-.12-.54-.18-1.68-.18-2.58,0-.66.18-2.22.36-3l6.72-34.27c-2.7-.6-5.04-.84-7.86-.84-6.96,0-16.2,7.86-16.2,21Zm7.44,2.4c-1.44,0-2.34-.96-2.34-4.56,0-9.12,3.72-16.44,10.14-16.44,1.14,0,2.58.24,3.6.54.12,6.18-6.84,20.46-11.4,20.46Z"/>
      <path class="cls-1" d="m452.59,233.16c-.66,0-2.1,1.26-3.12,1.26-.72,0-.9-.42-.78-1.08l4.08-20.64c.06-.3.18-.96.18-1.14,0-.24-.18-.54-.48-.72-1.62.42-3.24.72-4.74.9.12.54.18,1.08.18,1.62,0,7.02-7.38,20.88-12.66,20.88-1.2,0-2.04-.54-2.04-1.8,0-.72.12-1.56.36-2.7l3.48-16.62c.06-.36.18-.84.18-1.2,0-.72-.48-1.02-1.2-1.02-.96,0-6.36,2.64-9.06,4.32.12.54.36,1.14.78,1.14.6,0,2.76-1.26,3.54-1.26.48,0,.6.36.54,1.02,0,.18-.12.72-.12.84l-2.94,13.8c-.24,1.2-.42,2.58-.42,3.54,0,2.58,1.56,3.84,4.08,3.84,4.2,0,8.64-3.3,12.84-11.1h.24l-1.74,8.28c-.12.48-.18,1.14-.18,1.32,0,1.26.9,1.5,1.68,1.5,1.44,0,5.16-1.8,8.04-3.9-.12-.78-.3-1.08-.72-1.08Z"/>
      <path class="cls-1" d="m471.37,210.9c-8.46,0-13.92,8.82-13.92,17.34,0,4.32,1.5,9.9,8.22,9.9,4.32,0,8.04-2.46,10.44-4.68,0-.3-.18-1.2-.78-1.2-.24,0-.48.18-.84.42-2.28,1.62-4.62,2.34-6.66,2.34-4.38,0-5.4-3.66-5.4-7.32,0-.84.06-1.68.12-2.46,8.94-.3,15.48-2.82,15.48-8.7,0-4.02-3.24-5.64-6.66-5.64Zm-8.64,12.54c.78-5.52,3.72-10.44,7.5-10.44,1.8,0,3,1.2,3,3.42,0,3.72-2.94,6.42-10.5,7.02Z"/>
      <path class="cls-1" d="m507.01,210.9c-8.46,0-13.92,8.82-13.92,17.34,0,4.32,1.5,9.9,8.22,9.9,4.32,0,8.04-2.46,10.44-4.68,0-.3-.18-1.2-.78-1.2-.24,0-.48.18-.84.42-2.28,1.62-4.62,2.34-6.66,2.34-4.38,0-5.4-3.66-5.4-7.32,0-.84.06-1.68.12-2.46,8.94-.3,15.48-2.82,15.48-8.7,0-4.02-3.24-5.64-6.66-5.64Zm-8.64,12.54c.78-5.52,3.72-10.44,7.5-10.44,1.8,0,3,1.2,3,3.42,0,3.72-2.94,6.42-10.5,7.02Z"/>
      <path class="cls-1" d="m541.82,233.04c-.6,0-2.16,1.38-3.18,1.38-.54,0-.72-.3-.72-.78,0-.18.06-.6.18-1.14l3.06-14.4c.24-1.26.42-2.64.42-3.6,0-2.52-1.44-3.6-3.66-3.6-4.74,0-9.42,5.28-13.62,12.36h-.24l2.16-10.44c.06-.36.12-.78.12-1.02,0-.66-.48-.9-1.02-.9-.72,0-6.18,2.46-9.12,4.26.12.6.42,1.2.84,1.2.66,0,2.76-1.26,3.42-1.26.36,0,.48.3.48.72,0,.36-.24,1.98-3.9,20.52-.06.3-.18.96-.18,1.14,0,.24.18.54.48.72,1.62-.42,3.18-.72,4.74-.9-.12-.54-.18-1.08-.18-1.62,0-2.82,1.26-7.02,2.76-9.66,2.88-5.4,7.98-11.16,10.32-11.16,1.02,0,1.68.48,1.68,1.74,0,.72-.12,1.62-.36,2.7l-3.36,16.02c-.06.36-.18,1.02-.18,1.26,0,1.32.96,1.56,1.8,1.56,1.68,0,5.28-1.86,8.1-3.9-.18-.84-.42-1.2-.84-1.2Z"/>
      <path class="cls-1" d="m570.2,233.04c-.6,0-2.16,1.38-3.24,1.38-.48,0-.66-.3-.66-.78,0-.24.06-.78.12-1.08l4.14-20.82c-2.94-.6-5.16-.84-7.68-.84-6.54,0-16.38,7.8-16.38,21.36,0,4.68,2.16,5.88,4.5,5.88,3.54,0,7.98-2.82,11.94-10.68h.24l-1.74,7.74c-.12.54-.24,1.08-.24,1.5,0,1.2.9,1.44,1.74,1.44,1.62,0,5.28-1.86,8.1-3.9-.18-.84-.42-1.2-.84-1.2Zm-16.56,1.26c-1.26,0-2.04-1.14-2.04-4.02,0-9.84,4.14-16.98,10.5-16.98,1.02,0,2.28.24,3.24.54.12,6.42-6.78,20.46-11.7,20.46Z"/>
      <path class="cls-1" d="m615.09,233.04c-.66,0-2.16,1.38-3.24,1.38-.48,0-.72-.3-.72-.78,0-.24.12-.78.18-1.14l3.06-14.4c.24-1.2.42-2.52.42-3.6,0-2.52-1.5-3.6-3.24-3.6-4.5,0-8.94,5.16-13.14,12.12h-.18l.96-4.8c.3-1.5.48-2.64.48-3.66,0-2.58-1.56-3.66-3.3-3.66-4.56,0-9,5.28-13.2,12.36h-.24l2.16-10.44c.06-.36.12-.84.12-1.02,0-.66-.48-.9-1.02-.9-.9,0-6.18,2.46-9.12,4.26.12.6.42,1.2.84,1.2.66,0,2.76-1.26,3.42-1.26.36,0,.48.3.48.72,0,.36-.3,2.04-3.9,20.52-.06.3-.18.96-.18,1.14,0,.24.18.54.48.72,1.62-.42,3.18-.72,4.74-.9-.12-.54-.18-1.08-.18-1.62,0-2.82,1.26-7.02,2.76-9.66,2.88-5.4,7.74-11.16,9.9-11.16.9,0,1.32.48,1.32,1.74,0,.72-.12,1.62-.36,2.7l-3.36,17.04c-.06.36-.18.96-.18,1.14,0,.24.24.54.48.72,1.62-.42,3.24-.72,4.74-.9-.12-.54-.18-1.08-.18-1.62,0-3.12,1.5-7.38,2.76-9.66,2.94-5.4,7.8-11.16,9.96-11.16.9,0,1.26.48,1.26,1.74,0,.72-.12,1.8-.3,2.7l-3.42,16.02c-.06.24-.18,1.02-.18,1.26,0,1.32,1.02,1.56,1.86,1.56,1.62,0,5.28-1.86,8.04-3.9-.12-.84-.36-1.2-.78-1.2Z"/>
      <path class="cls-1" d="m633.45,210.9c-5.7,0-13.86,6.84-13.86,17.46,0,6.12,1.98,9.78,7.62,9.78,6.72,0,14.82-5.58,14.82-17.16,0-5.82-2.58-10.08-8.58-10.08Zm-4.74,24.9c-2.94,0-4.08-2.76-4.08-8.04,0-6.72,2.94-14.52,8.28-14.52,3,0,4.08,3.18,4.08,8.22,0,8.28-3.42,14.34-8.28,14.34Z"/>
      <path class="cls-1" d="m665.07,210.9c-3.42,0-6.84,3.3-11.16,10.92h-.24l1.92-9c.06-.36.12-.84.12-1.02,0-.66-.48-.9-1.02-.9-.78,0-6.18,2.46-9.12,4.26.12.6.42,1.2.84,1.2.66,0,2.64-1.2,3.3-1.2.42,0,.54.3.54.78-.06.48-.18,1.26-.72,4.38l-2.64,13.62c-.18,1.02-.36,1.5-.48,1.92-.12.36-.36,1.14-.36,1.62,0,.24.24.54.54.72,1.62-.42,3.3-.72,4.86-.9-.12-.54-.18-1.08-.18-1.62,0-8.28,7.14-19.08,11.1-19.08.78,0,1.38.42,1.74,1.08h.96c.3-2.46.9-4.44,1.62-6.24-.24-.24-.9-.54-1.62-.54Z"/>
      <path class="cls-1" d="m689.26,233.04c-.6,0-2.16,1.38-3.24,1.38-.48,0-.66-.3-.66-.78,0-.24.06-.78.12-1.08l4.14-20.82c-2.94-.6-5.16-.84-7.68-.84-6.54,0-16.38,7.8-16.38,21.36,0,4.68,2.16,5.88,4.5,5.88,3.54,0,7.98-2.82,11.94-10.68h.24l-1.74,7.74c-.12.54-.24,1.08-.24,1.5,0,1.2.9,1.44,1.74,1.44,1.62,0,5.28-1.86,8.1-3.9-.18-.84-.42-1.2-.84-1.2Zm-16.56,1.26c-1.26,0-2.04-1.14-2.04-4.02,0-9.84,4.14-16.98,10.5-16.98,1.02,0,2.28.24,3.24.54.12,6.42-6.78,20.46-11.7,20.46Z"/>
    </g>
  </g>
</svg>