<?xml version="1.0" encoding="UTF-8"?>
<svg id="Capa_2" data-name="Capa 2" xmlns="http://www.w3.org/2000/svg" viewBox="0 0 29.53 24.3">
  <defs>
    <style>
      .cls-1 {
        fill: #fff;
      }
    </style>
  </defs>
  <g id="Capa_1-2" data-name="Capa 1">
    <path class="cls-1" d="m29.41,2.91c-.94.42-1.97.68-2.99.85.48-.08,1.19-.95,1.47-1.3.43-.54.79-1.15.99-1.81.03-.05.05-.12,0-.16-.07-.03-.11-.01-.16.01-1.13.61-2.3,1.04-3.54,1.35-.1.03-.18,0-.24-.06-.1-.12-.2-.23-.31-.32-.52-.44-1.08-.79-1.72-1.05-.83-.34-1.74-.48-2.63-.42-.87.06-1.72.3-2.5.7-.77.4-1.46.97-2.01,1.64-.57.7-.99,1.53-1.2,2.41-.21.85-.19,1.69-.06,2.54.02.14,0,.16-.12.14-4.86-.72-8.89-2.46-12.17-6.19-.14-.16-.22-.16-.34.01-1.43,2.15-.74,5.59,1.05,7.29.24.23.48.45.75.66-.1.02-1.29-.11-2.35-.66-.14-.09-.21-.04-.23.12-.01.23,0,.45.04.7.27,2.18,1.78,4.19,3.84,4.97.25.1.52.19.78.24-.47.1-.95.18-2.3.07-.17-.03-.23.05-.17.21,1.01,2.76,3.2,3.58,4.84,4.05.22.04.44.04.66.09-.01.02-.03.02-.04.04-.54.83-2.43,1.44-3.3,1.75-1.59.56-3.33.81-5.02.64-.27-.04-.33-.04-.4,0-.07.05,0,.11.08.18.34.23.69.43,1.05.62,1.07.57,2.19,1.02,3.35,1.34,6.03,1.66,12.82.44,17.34-4.06,3.55-3.53,4.8-8.4,4.8-13.28,0-.19.23-.3.36-.4.92-.69,1.67-1.53,2.36-2.45.15-.21.16-.39.16-.47v-.03c0-.08,0-.05-.12,0Z"/>
  </g>
</svg>